<svg xmlns="http://www.w3.org/2000/svg" viewBox="100 100 580 180"><defs><style>.cls-1{fill:none;}.cls-2,.cls-3{fill:#036;}.cls-2{fill-rule:evenodd;}</style></defs><g id="Layer_2" data-name="Layer 2"><g id="Layer_1-2" data-name="Layer 1"><rect class="cls-1" width="580" height="180"/><path class="cls-2" d="M74.14,43.76a6.87,6.87,0,0,0,4.78,1.46c2.93,0,5.32-1.2,5.32-2.79,0-2.92-7.84-7.18-21-7.18-18.36,0-28.91,8-28.91,17.82,0,9.44,9,18.23,29.27,18.23,13,0,19.94-4.26,19.94-6.25,0-.94-1.33-1.6-2.92-1.6-1.07,0-1.47.13-3.33.93a29.43,29.43,0,0,1-10.78,2c-10.51,0-19.29-5.32-19.29-14.89,0-7.86,6.79-12.24,15-12.24,6.52,0,9.31,2.39,11.85,4.52Z"/><path class="cls-2" d="M144.65,52.39c-.67-9.18-10.52-17.14-28.33-17.14-18.23,0-28.73,8-28.73,18.08,0,11.84,13.3,18,28.6,18C133.34,71.4,145.44,63.3,144.65,52.39ZM128.56,62.48c-3.33,3.19-8.26,4.26-12.24,4.26-3.46,0-12.77-.93-15.3-8.91a16.43,16.43,0,0,1-.66-4.93c0-2.65.4-9.57,9.17-12.37a22.18,22.18,0,0,1,6.79-.92c1.73,0,7.58.13,12,3.85A11.48,11.48,0,0,1,132,52.53v0A13.24,13.24,0,0,1,128.56,62.48Z"/><path class="cls-2" d="M164.06,37a3.42,3.42,0,0,0-2.93-.93h-6.78c-1.2,0-2,.13-2,1.05V69.7c0,.93.54.93,2,.93h5.58c1.47,0,1.73-.26,1.73-1.07V45.89l31,23.67a3.31,3.31,0,0,0,2.39,1.07h5.06c1.32,0,1.86-.13,1.86-.93V37c0-.8-.4-1.07-1.73-.93h-5.59c-1.46,0-1.73.26-1.73.93V58.8L164.06,37Z"/><path class="cls-2" d="M250,43.76a6.91,6.91,0,0,0,4.79,1.46c2.92,0,5.32-1.2,5.32-2.79,0-2.92-7.85-7.18-21-7.18-18.49,0-28.9,8-28.9,17.82,0,9.44,9,18.23,29.13,18.23,13,0,19.94-4.26,19.94-6.25,0-.94-1.33-1.6-2.92-1.6-1.07,0-1.47.13-3.33.93a29.43,29.43,0,0,1-10.78,2c-10.5,0-19.29-5.32-19.29-14.89,0-7.86,6.79-12.24,15-12.24,6.65,0,9.45,2.39,12,4.52Z"/><path class="cls-2" d="M300,54.8c1.46,0,2-.13,2-.93V51.48c0-.8-.53-.94-1.86-.94H282.21V40.43h21.28c1.45,0,2.12-.13,2-1.06V37c.13-.93-.79-.93-2-.93H272.34c-1.6,0-2.13.26-2.13,1.32V69.43c0,1.07.66,1.07,2.13,1.07h31.13c1.45,0,1.85-.13,2-.67V67c0-.93-.67-.93-2-.93H282.21V54.8H300Z"/><path class="cls-2" d="M327.27,37c-.92-.8-1.32-.93-2.92-.93h-6.66c-1.19,0-2,.13-2,1.05V69.7c0,.93.54.93,2,.93h5.6c1.46,0,1.72-.26,1.72-1.07V45.89l30.9,23.67a3.33,3.33,0,0,0,2.4,1.07h5.06c1.32,0,1.85-.13,1.85-.93V37c0-.8-.4-1.07-1.72-.93h-5.58c-1.47,0-1.74.26-1.74.93V58.8L327.27,37Z"/><path class="cls-2" d="M414.28,40.43c1.59,0,2-.26,2-1.06V37c0-.8-.67-.93-2-.93H374.91c-1.33,0-2,.13-2,1.05v2.27c0,.8.4,1.06,2,1.06h13.56v29c0,.94.53,1.07,2.12,1.2h8.12c1.46,0,1.86-.4,1.86-1.2v-29Z"/><path class="cls-2" d="M467.25,68.9,450.49,54.54c6.25-1.07,13.95-3.86,13.95-9.32,0-2.79-1.85-5.45-5.85-7.18-5.32-2.39-13.3-2.53-18.49-2.53a115.5,115.5,0,0,0-14.76.8c-1.2.27-1.47.53-1.47,1.59V69.56h0c0,.94.67,1.07,2,1.07h7.89c1.72,0,2-.26,2-1.2V57.06c0-.4,0-1.33,1.87-1.33a4,4,0,0,1,3.19,1.33l13.43,12.5c.93.81,1.07.94,2.93.94h9.05c.66,0,1.72,0,1.72-.67C467.91,69.56,467.51,69.16,467.25,68.9ZM435.71,52.82V39.66c.93,0,2.14-.13,4-.13,3.46,0,12.77,0,12.77,6.64,0,4.53-5.58,6.25-10.91,6.65A40.79,40.79,0,0,1,435.71,52.82Z"/><path class="cls-2" d="M487.83,37.1c0-.92-.52-1.05-1.86-1.05h-8.51c-1.6,0-1.87.4-1.87,1.05V69.56c0,.94.67,1.07,2,1.07H486c1.2,0,2-.13,2-1.07V37.1Z"/><path class="cls-2" d="M530.42,69.56c.94.94,1.2.94,2.93.94H542c.67,0,1.74,0,1.74-.67,0-.27-.27-.53-.54-.8L525.36,51.61l15-14.11c.27-.26.53-.52.53-.79,0-.66-1.06-.66-1.6-.66H533.2c-1.59,0-1.72,0-2.79.93L520.3,46.55,510.46,37c-.93-.8-1.2-.93-3.06-.93h-8.11c-.54,0-.27,0-.27.66a1.12,1.12,0,0,0,.4.66l13.95,15.56L497.42,69.16c-.66.54-.79.8-.79.94,0,.53,1.19.53,1.86.53h4.79a3,3,0,0,0,2.66-.93l12.52-11.57,12,11.43Z"/><path class="cls-3" d="M546.63,27.79h-2.79V26.74h6.91v1.05h-2.93v8.27h-1.19Z"/><path class="cls-3" d="M559.54,31.92a37.91,37.91,0,0,1-.14-4h0a27.49,27.49,0,0,1-1.2,3.59l-1.59,4.53h-.93l-1.47-4.4c-.4-1.32-.79-2.52-1.06-3.59h0c0,1.2-.13,2.67-.13,4.13l-.27,4h-1.2l.67-9.31h1.46l1.6,4.52c.4,1.2.66,2.13.93,3.19h0c.27-.93.53-2,.92-3.19l1.61-4.52h1.45l.54,9.31h-1.19Z"/><path class="cls-3" d="M247.89,142.25a18,18,0,0,1-7-6.76,19.72,19.72,0,0,1,0-19.45,18.07,18.07,0,0,1,7.07-6.75A20.63,20.63,0,0,1,258,106.83a21.1,21.1,0,0,1,8.27,1.59,17,17,0,0,1,6.31,4.57l-4.42,4.15a13,13,0,0,0-9.85-4.33,13.73,13.73,0,0,0-6.78,1.66,12,12,0,0,0-4.68,4.6,14.07,14.07,0,0,0,0,13.36,12,12,0,0,0,4.68,4.6,13.74,13.74,0,0,0,6.78,1.7,12.84,12.84,0,0,0,9.84-4.36l4.42,4.2a16.86,16.86,0,0,1-6.34,4.58,21,21,0,0,1-8.29,1.58A20.58,20.58,0,0,1,247.89,142.25Z"/><path class="cls-3" d="M299.26,107.36h-1.83a3.78,3.78,0,0,0-3.45,2.23l-15.57,34.58h7l3.63-8.52h.11l2.27-5.36h-.1l6.89-16.09,7,16.09h-.06l2.3,5.36h0l3.69,8.52h7.15l-15.62-34.58A3.78,3.78,0,0,0,299.26,107.36Z"/><path class="cls-3" d="M376.36,107.36h-1.84a3.78,3.78,0,0,0-3.45,2.23l-15.56,34.58h7l3.63-8.52h.11l2.27-5.36h-.1l6.89-16.09,7,16.09h-.06l2.3,5.36h0l3.69,8.52h7.15l-15.61-34.58A3.79,3.79,0,0,0,376.36,107.36Z"/><path class="cls-3" d="M333.89,113.14h-12.2v-5.78h31.23v5.78H340.73v31h-6.84Z"/><path class="cls-3" d="M406.14,107.36H413v31h19.25v5.79H406.14Z"/><path class="cls-3" d="M455,131.19v13h-6.84V131.26l-14.46-23.93H441l10.79,18,10.88-18h6.73Z"/><path class="cls-3" d="M481.47,143.49a17.17,17.17,0,0,1-6.28-3.2l2.37-5.32a18.82,18.82,0,0,0,5.55,2.93,20.56,20.56,0,0,0,6.6,1.12,11.46,11.46,0,0,0,6.12-1.31,4,4,0,0,0,2-3.47,3.33,3.33,0,0,0-1.12-2.6,8.08,8.08,0,0,0-2.87-1.61c-1.16-.39-2.74-.82-4.73-1.32a56,56,0,0,1-6.82-2,11.28,11.28,0,0,1-4.46-3.13,8.42,8.42,0,0,1-1.87-5.76,9.78,9.78,0,0,1,1.66-5.55,11.19,11.19,0,0,1,5-4,20.41,20.41,0,0,1,8.17-1.48,26.9,26.9,0,0,1,6.63.85,18.67,18.67,0,0,1,5.64,2.41l-2.17,5.32a21,21,0,0,0-5-2.16,19.18,19.18,0,0,0-5.11-.73q-4.05,0-6,1.36a4.25,4.25,0,0,0-2,3.63,3.26,3.26,0,0,0,1.14,2.58,8,8,0,0,0,2.86,1.58q1.72.57,4.73,1.31a49.08,49.08,0,0,1,6.73,2,11.38,11.38,0,0,1,4.5,3.13,8.21,8.21,0,0,1,1.87,5.67,9.68,9.68,0,0,1-1.66,5.52,11.17,11.17,0,0,1-5,4,20.55,20.55,0,0,1-8.2,1.47A28.11,28.11,0,0,1,481.47,143.49Z"/><path class="cls-3" d="M524.57,113.14h-12.2v-5.78h31.24v5.78H531.42v31h-6.84Z"/></g></g></svg>